<?xml version="1.0" standalone="no"?>
<!DOCTYPE svg PUBLIC "-//W3C//DTD SVG 20010904//EN"
 "http://www.w3.org/TR/2001/REC-SVG-20010904/DTD/svg10.dtd">
<svg version="1.0" xmlns="http://www.w3.org/2000/svg"
 width="513.000000pt" height="513.000000pt" viewBox="0 0 513.000000 513.000000"
 preserveAspectRatio="xMidYMid meet">
<metadata>
Created by potrace 1.11, written by Peter Selinger 2001-2013
</metadata>
<g transform="translate(0.000000,513.000000) scale(0.100000,-0.100000)"
fill="#000000" stroke="none">
<path d="M2750 3824 c-142 -20 -390 -31 -470 -22 -102 11 -200 9 -265 -7 -33
-8 -73 -15 -88 -15 -16 0 -66 -18 -113 -40 -47 -22 -87 -40 -90 -40 -16 0
-242 -147 -332 -215 -45 -35 -262 -251 -262 -262 0 -5 -9 -18 -20 -28 -11 -10
-20 -22 -20 -27 0 -5 -15 -24 -33 -44 -17 -19 -37 -46 -42 -59 -6 -13 -24 -38
-40 -57 -84 -94 -129 -157 -160 -225 -8 -17 -23 -34 -34 -38 -15 -5 -117 -129
-171 -208 -8 -12 -28 -38 -45 -58 -16 -20 -46 -62 -65 -94 -19 -32 -45 -73
-57 -91 -12 -19 -28 -53 -35 -76 -7 -24 -27 -65 -46 -93 -18 -27 -35 -61 -39
-75 -3 -14 -23 -59 -44 -100 -139 -277 -176 -391 -153 -476 7 -26 64 -57 88
-48 11 4 27 -2 44 -17 35 -31 69 -50 107 -60 16 -4 48 -14 70 -22 56 -21 220
-4 560 58 44 8 103 16 130 19 28 3 82 10 120 16 97 13 212 29 260 35 22 2 78
10 125 17 130 20 618 16 745 -5 289 -47 365 -58 525 -72 157 -14 465 -51 625
-75 167 -24 755 -32 957 -13 132 13 167 24 312 92 63 30 92 51 131 96 28 31
54 65 60 74 5 9 9 61 9 116 l-1 100 -57 115 c-31 63 -68 133 -81 155 -14 22
-28 47 -31 55 -4 8 -44 71 -89 140 -45 69 -84 130 -86 135 -11 26 -52 85 -60
85 -5 0 -26 26 -46 58 -21 31 -48 66 -59 77 -22 20 -59 71 -115 155 -72 110
-313 411 -419 523 -109 116 -161 164 -235 217 -42 30 -120 87 -173 125 -119
86 -148 105 -163 105 -6 0 -37 11 -68 24 -74 31 -192 69 -197 63 -3 -3 -26 2
-51 9 -57 17 -174 16 -313 -2z m234 -30 c3 -8 10 -13 15 -10 5 3 32 7 60 9 47
4 54 2 76 -24 13 -16 27 -25 30 -19 9 14 61 12 73 -3 7 -8 7 -27 -1 -60 -12
-52 -34 -62 -69 -30 -18 16 -19 16 -25 -6 -4 -16 -10 -20 -22 -15 -9 3 -26 9
-38 11 -15 4 -22 12 -20 26 4 41 -21 28 -28 -15 -9 -56 -21 -71 -46 -57 -10 5
-19 16 -19 24 0 20 -26 19 -34 -1 -5 -12 -13 -15 -34 -10 -15 4 -42 7 -60 6
-18 0 -38 3 -45 7 -19 12 -100 31 -112 27 -7 -3 -33 2 -59 11 -33 11 -51 13
-60 6 -13 -11 -53 -5 -74 12 -17 13 -22 6 -16 -20 5 -18 15 -23 53 -25 45 -3
46 -3 49 -40 3 -37 2 -38 -30 -38 -25 0 -29 3 -18 10 13 9 11 13 -10 30 l-25
19 -3 -29 c-4 -37 -12 -38 -34 -2 -10 15 -23 35 -30 45 -11 14 -10 19 2 27 11
8 12 12 3 18 -7 4 -10 17 -7 30 5 15 16 23 43 27 20 4 46 11 58 17 12 6 40 8
62 4 25 -4 41 -2 41 4 0 5 17 10 38 10 21 0 48 7 60 16 14 10 30 13 40 8 9 -4
20 -6 24 -6 4 1 37 3 73 5 36 2 68 7 72 10 12 13 41 7 47 -9z m-887 -81 c-3
-10 -5 -2 -5 17 0 19 2 27 5 18 2 -10 2 -26 0 -35z m106 -25 l-7 -43 -8 45
c-4 25 -5 52 -2 60 11 30 25 -17 17 -62z m91 56 c10 -27 7 -99 -4 -88 -14 14
-25 104 -12 104 5 0 13 -7 16 -16z m-309 -14 c3 -5 1 -10 -4 -10 -6 0 -11 5
-11 10 0 6 2 10 4 10 3 0 8 -4 11 -10z m399 -6 c3 -9 5 -46 5 -82 -1 -37 -3
-58 -6 -47 -3 11 -17 33 -31 48 -23 24 -25 31 -14 47 7 11 12 27 12 35 0 20
26 19 34 -1z m931 -14 c3 -5 13 -10 22 -10 43 0 143 -71 143 -103 0 -8 9 -13
22 -13 30 1 35 -27 9 -53 -10 -10 -16 -23 -13 -27 4 -3 0 -5 -8 -2 -10 3 -14
16 -13 36 2 33 -5 40 -24 21 -8 -8 -13 -8 -18 1 -5 8 -12 6 -26 -6 -18 -16
-19 -16 -19 11 0 23 -2 25 -15 15 -17 -14 -37 -4 -34 18 1 10 0 26 -1 37 -1
16 -3 15 -12 -7 -11 -31 -15 -32 -52 -18 -27 10 -33 38 -20 88 7 23 47 32 59
12z m-631 -84 c28 -7 52 -19 54 -27 7 -22 23 -28 55 -22 16 3 39 0 53 -8 20
-10 27 -11 33 0 6 9 24 10 70 5 65 -7 80 -16 61 -39 -17 -20 -182 -15 -207 7
-12 10 -29 14 -51 11 -28 -5 -34 -2 -39 16 -3 11 -9 18 -14 16 -4 -3 -6 -12
-3 -19 11 -28 -55 -12 -81 19 -45 56 -27 67 69 41z m404 5 c9 -5 25 -12 35
-15 33 -10 7 -27 -31 -20 -43 7 -57 18 -48 33 9 13 21 14 44 2z m107 -21 c3
-5 -3 -10 -14 -10 -12 0 -21 5 -21 10 0 6 6 10 14 10 8 0 18 -4 21 -10z m-885
-36 c0 -11 -5 -14 -16 -10 -9 3 -18 6 -20 6 -3 0 -2 5 1 10 10 16 35 12 35 -6z
m965 -2 c-3 -3 -11 0 -18 7 -9 10 -8 11 6 5 10 -3 15 -9 12 -12z m-1060 -32
c-6 -9 -9 -9 -16 1 -10 17 0 34 13 21 6 -6 7 -16 3 -22z m846 -9 c-14 -14 -23
-17 -27 -9 -4 6 4 20 17 31 29 23 38 6 10 -22z m524 15 c25 -24 26 -24 9 -60
-18 -36 -45 -53 -65 -40 -17 10 6 124 26 124 2 0 16 -11 30 -24z m-385 5 c0
-5 -16 -12 -36 -16 -20 -3 -33 -9 -29 -13 7 -7 12 -8 41 -11 22 -2 7 -21 -17
-21 -18 0 -49 21 -49 34 0 2 7 12 16 20 16 17 74 22 74 7z m90 -10 c0 -14 -28
-33 -40 -26 -20 12 -10 35 15 35 14 0 25 -4 25 -9z m-700 -48 c0 -13 -19 -16
-97 -16 -48 1 -73 8 -73 22 0 6 35 9 85 8 61 -1 85 -5 85 -14z m160 8 c-1 -23
-19 -31 -63 -25 -43 6 -55 13 -42 25 7 8 105 8 105 0z m916 -18 c6 -22 1 -32
-26 -56 -43 -39 -56 -24 -31 36 23 52 47 61 57 20z m-523 -30 c24 -14 -1 -23
-55 -21 -52 3 -63 6 -66 21 -3 17 1 18 55 12 32 -4 61 -9 66 -12z m563 -25
c-6 -30 -29 -58 -47 -58 -7 0 13 58 28 83 12 20 25 4 19 -25z m-436 13 c0 -11
-25 -21 -51 -21 -12 0 -16 5 -13 15 7 16 64 21 64 6z m40 -6 c-7 -8 -17 -12
-22 -9 -6 4 -5 10 3 15 22 14 33 10 19 -6z m86 -10 c14 -11 15 -14 4 -15 -26
0 -60 12 -60 21 0 14 34 10 56 -6z m364 -28 c0 -33 -33 -78 -47 -64 -8 9 26
97 38 97 5 0 9 -15 9 -33z m-1160 8 c0 -16 -26 -20 -55 -9 -13 5 -14 8 -3 15
22 14 58 10 58 -6z m114 9 c26 -10 18 -19 -17 -18 -57 2 -67 4 -67 14 0 11 59
14 84 4z m171 -24 c-5 -8 -11 -8 -17 -2 -6 6 -7 16 -3 22 5 8 11 8 17 2 6 -6
7 -16 3 -22z m-895 10 c0 -5 -4 -10 -10 -10 -5 0 -10 5 -10 10 0 6 5 10 10 10
6 0 10 -4 10 -10z m510 -6 c0 -14 -3 -14 -15 -4 -8 7 -15 14 -15 16 0 2 7 4
15 4 8 0 15 -7 15 -16z m710 -18 c0 -11 -19 -15 -25 -6 -3 5 1 10 9 10 9 0 16
-2 16 -4z m260 -12 c0 -2 -9 -4 -20 -4 -11 0 -20 4 -20 9 0 5 9 7 20 4 11 -3
20 -7 20 -9z m326 -29 c-16 -25 -36 -33 -36 -16 0 4 10 21 22 36 26 33 38 16
14 -20z m-440 19 c18 -14 17 -15 -21 -10 -22 3 -52 6 -67 6 -16 0 -28 5 -28
10 0 16 94 12 116 -6z m-1456 -39 c7 -9 11 -17 9 -19 -7 -7 -49 13 -49 24 0
15 26 12 40 -5z m-140 -16 c0 -6 -4 -7 -10 -4 -5 3 -10 11 -10 16 0 6 5 7 10
4 6 -3 10 -11 10 -16z m1780 -9 c0 -5 -7 -10 -16 -10 -8 0 -12 5 -9 10 3 6 10
10 16 10 5 0 9 -4 9 -10z m-1860 -10 c0 -5 -2 -10 -4 -10 -3 0 -8 5 -11 10 -3
6 -1 10 4 10 6 0 11 -4 11 -10z m2189 -32 c-8 -14 -14 -18 -17 -10 -4 13 17
46 25 38 3 -2 -1 -15 -8 -28z m-699 12 c0 -5 -7 -10 -15 -10 -8 0 -15 5 -15
10 0 6 7 10 15 10 8 0 15 -4 15 -10z m44 -6 c22 -9 20 -24 -3 -24 -21 0 -34
13 -24 24 8 7 8 7 27 0z m221 -4 c4 -6 -7 -10 -24 -10 -17 0 -31 5 -31 10 0 6
11 10 24 10 14 0 28 -4 31 -10z m517 -47 c-14 -25 -52 -59 -52 -45 0 13 51 74
57 68 3 -2 0 -13 -5 -23z m39 -56 c-10 -9 -11 -8 -5 6 3 10 9 15 12 12 3 -3 0
-11 -7 -18z m15 -55 c-16 -15 -25 -20 -21 -12 13 25 38 50 44 45 3 -3 -8 -18
-23 -33z m84 -57 c-7 -9 -15 -13 -18 -10 -3 2 1 11 8 20 7 9 15 13 18 10 3 -2
-1 -11 -8 -20z m-1665 -346 c24 -22 47 -53 50 -69 5 -22 10 -27 27 -22 18 4
20 2 13 -29 -4 -19 -11 -35 -16 -37 -5 -2 -9 -16 -9 -32 0 -16 -7 -36 -16 -44
-14 -15 -14 -16 3 -17 15 0 14 -2 -4 -11 -23 -11 -31 -28 -15 -28 5 0 23 7 40
16 32 16 38 32 34 94 -2 32 17 90 29 90 5 0 9 6 9 13 0 8 11 20 25 27 14 7 25
17 25 21 0 5 17 20 37 34 32 21 49 25 108 25 108 -1 210 -17 257 -42 24 -12
50 -23 58 -24 8 -2 22 -13 30 -26 8 -12 30 -42 48 -65 17 -24 32 -47 32 -52 0
-5 7 -14 15 -21 21 -18 19 -67 -3 -79 -17 -9 -99 -22 -257 -39 l-70 -8 45 -28
c25 -16 46 -30 48 -31 1 -1 -5 -16 -14 -32 -10 -16 -15 -37 -11 -46 9 -23 42
-10 54 21 9 25 11 26 18 7 11 -25 24 -35 52 -35 12 0 23 -6 26 -12 2 -7 20
-13 39 -13 40 0 39 11 -1 29 -51 23 -91 51 -88 61 10 29 294 28 368 -1 39 -16
109 -95 109 -123 0 -9 28 -33 61 -54 34 -21 60 -40 57 -42 -4 -5 -41 6 -108
31 -19 7 -68 20 -109 29 l-74 16 -24 -27 c-18 -21 -28 -25 -51 -21 -21 4 -33
1 -45 -14 -29 -34 -75 -20 -107 33 l-19 31 -12 -26 c-12 -26 -14 -26 -35 -12
-24 15 -74 21 -74 8 0 -10 51 -53 62 -53 5 0 7 -4 3 -9 -7 -12 -64 -11 -71 1
-3 4 3 8 13 8 11 1 6 6 -13 14 -39 17 -43 23 -46 69 -2 33 -4 35 -17 23 -10
-11 -11 -18 -3 -28 7 -10 7 -18 -4 -32 -17 -24 -30 -15 -16 10 8 14 6 22 -8
34 -10 9 -20 23 -22 31 -4 17 -37 43 -45 35 -3 -3 0 -12 7 -21 10 -13 9 -15
-9 -15 -11 0 -21 6 -21 14 0 21 -41 28 -55 10 -10 -14 -12 -14 -24 0 -11 13
-11 16 -1 16 8 0 10 3 7 6 -4 4 -18 -1 -32 -10 -27 -18 -27 -17 -29 29 -1 23
-6 31 -24 33 -17 3 -21 8 -17 23 5 14 2 19 -14 19 -11 0 -22 -9 -26 -20 -7
-21 -25 -28 -25 -10 0 6 -9 19 -20 30 l-21 21 -44 -28 c-34 -22 -42 -33 -39
-49 4 -16 0 -23 -17 -27 -18 -5 -21 -11 -16 -36 4 -19 2 -31 -6 -34 -7 -2 -9
-7 -6 -11 11 -11 37 5 44 27 6 22 7 22 18 -3 7 -15 19 -24 28 -22 11 2 18 -6
22 -25 3 -15 10 -57 17 -93 6 -35 16 -68 22 -72 8 -4 9 -11 1 -20 -8 -11 -9
-31 -4 -80 2 -21 19 -3 27 30 7 26 6 46 -2 68 -7 17 -9 36 -4 43 12 21 28 4
22 -24 -2 -15 1 -36 7 -48 13 -25 31 -305 21 -325 -8 -17 -26 25 -36 83 -4 22
-13 51 -20 65 -13 24 -13 24 -14 3 0 -12 5 -34 11 -50 7 -20 7 -29 -1 -31 -7
-3 -5 -9 5 -16 12 -8 15 -22 13 -46 l-4 -35 -8 33 c-8 30 -28 42 -40 24 -3 -5
-15 -8 -26 -7 -20 1 -29 12 -61 73 -18 33 -29 27 -29 -18 0 -50 -13 -51 -33
-2 -13 31 -13 37 -1 40 18 4 18 16 0 31 -25 21 -36 261 -13 290 10 12 9 13 -1
7 -10 -6 -13 3 -13 36 1 23 0 57 0 73 -3 70 24 124 56 111 20 -7 28 9 20 45
-6 26 -11 30 -31 26 -16 -3 -28 2 -35 12 -6 10 -12 12 -15 5 -9 -21 -59 -71
-77 -77 -27 -10 -39 1 -27 24 6 10 8 19 5 19 -12 0 -35 -29 -35 -43 0 -8 -7
-20 -15 -27 -12 -10 -18 -10 -30 0 -10 9 -15 9 -15 1 0 -6 -10 -11 -22 -11
-18 0 -20 2 -8 10 12 7 12 12 2 22 -6 6 -12 27 -12 45 0 33 -16 45 -26 20 -3
-8 -10 -14 -17 -15 -7 -1 -24 -4 -39 -8 -18 -4 -36 -1 -52 10 -29 19 -56 12
-56 -15 0 -12 -7 -19 -20 -19 -19 0 -25 15 -22 60 0 8 -8 20 -19 28 -24 17
-20 37 7 37 15 0 19 8 20 35 4 128 183 249 378 256 48 1 91 5 94 8 15 15 46 2
87 -35z m962 -136 c9 -26 44 -63 59 -63 23 0 64 -23 64 -35 0 -7 -10 -15 -22
-19 -17 -4 -28 1 -40 16 -16 22 -17 22 -36 5 -10 -10 -26 -15 -34 -12 -11 4
-18 -2 -22 -19 -7 -30 -36 -35 -60 -10 -25 24 -16 49 19 55 12 3 21 15 26 35
13 65 32 84 46 47z m-1598 -157 c13 -14 20 -29 16 -35 -10 -17 -23 -13 -30 8
-7 23 -42 34 -57 17 -12 -12 -58 -10 -58 3 0 18 28 31 65 31 31 0 47 -6 64
-24z m-219 -56 c0 -5 -4 -10 -10 -10 -5 0 -10 5 -10 10 0 6 5 10 10 10 6 0 10
-4 10 -10z m725 -162 c3 -7 7 -74 10 -148 3 -74 8 -151 11 -170 11 -68 16
-170 10 -187 -6 -15 -8 -15 -16 -3 -6 8 -10 25 -10 38 0 13 -4 20 -10 17 -6
-4 -10 9 -10 32 0 21 -5 45 -10 53 -7 10 -10 -8 -11 -60 -1 -95 -7 -114 -32
-95 -11 7 -25 31 -32 52 l-14 38 -1 -40 c-1 -38 -18 -95 -19 -66 -1 7 -12 26
-25 41 -41 49 -47 190 -8 204 9 3 23 9 30 12 8 4 12 -6 13 -33 1 -38 1 -38 12
-10 6 15 19 27 28 27 36 0 58 51 60 136 0 43 0 84 -1 89 -11 48 11 111 25 73z
m489 -29 c-6 -11 -24 -2 -24 11 0 5 7 7 15 4 8 -4 12 -10 9 -15z m-214 -65 c0
-8 -4 -14 -10 -14 -5 0 -10 9 -10 21 0 11 5 17 10 14 6 -3 10 -13 10 -21z m63
12 c3 -8 -1 -17 -9 -20 -22 -9 -23 -8 -21 14 1 23 22 27 30 6z m107 -32 c0 -8
6 -11 15 -8 16 7 20 -13 6 -34 -6 -10 -11 -8 -23 10 -24 38 -29 58 -12 51 7
-3 14 -11 14 -19z m76 -24 c3 -22 0 -30 -12 -30 -12 0 -15 6 -10 23 3 12 6 28
6 36 0 25 12 3 16 -29z m-136 0 c0 -4 3 -15 6 -24 4 -11 1 -16 -10 -16 -9 0
-19 -7 -22 -15 -4 -8 -12 -15 -19 -15 -7 0 -16 -6 -18 -12 -4 -10 -8 -9 -16 2
-8 11 -6 16 6 21 12 4 13 8 5 13 -21 13 -13 28 11 22 21 -5 23 -3 19 25 -4 29
-3 30 17 20 11 -7 21 -16 21 -21z m-455 -22 c-4 -18 -19 -48 -33 -67 -22 -29
-26 -31 -34 -17 -11 20 -3 50 12 41 5 -3 10 1 10 10 0 18 31 64 43 65 5 0 5
-15 2 -32z m843 -6 c17 17 28 1 15 -21 -15 -24 -4 -36 35 -36 21 0 32 5 32 14
0 22 14 3 16 -22 3 -38 16 -67 30 -67 19 0 18 -29 -2 -37 -8 -3 -13 -12 -10
-19 3 -8 -1 -14 -9 -14 -8 0 -15 6 -15 13 0 7 -16 30 -35 51 -19 21 -35 44
-35 50 0 6 -9 17 -20 24 -11 7 -20 21 -20 32 0 16 -7 20 -35 20 -19 0 -35 5
-35 11 0 6 9 9 20 6 11 -3 20 0 20 5 0 6 8 4 18 -5 14 -13 21 -14 30 -5z
m-195 -4 c28 -17 97 -80 97 -90 0 -4 -9 -17 -21 -29 l-21 -21 31 -27 c17 -15
31 -32 31 -38 0 -6 11 -18 25 -27 25 -17 25 -16 13 4 -7 11 -17 20 -21 20 -5
0 -6 7 -3 17 4 10 -1 23 -14 35 -19 18 -19 38 0 38 5 0 32 -20 60 -45 28 -25
57 -45 64 -45 7 0 32 -18 56 -40 24 -22 38 -40 32 -40 -23 0 -13 -46 13 -58
22 -10 25 -9 25 7 0 10 -7 22 -16 25 -9 4 -14 9 -11 13 4 3 13 1 21 -6 21 -18
52 15 34 37 -11 12 -6 12 22 -3 19 -10 37 -21 40 -24 3 -4 21 -13 40 -21 19
-8 40 -21 47 -30 7 -8 13 -10 13 -4 0 16 -138 127 -177 143 -24 10 -33 20 -33
37 0 13 2 24 5 24 6 0 77 -47 97 -63 21 -19 58 -31 58 -19 0 13 92 -20 107
-38 13 -17 26 -9 18 12 -5 12 -60 52 -75 53 -3 0 -20 15 -37 34 -46 46 -43 69
5 35 18 -12 22 -13 22 -1 0 19 108 10 132 -10 9 -8 21 -12 26 -9 5 3 24 1 41
-5 26 -9 35 -8 50 6 16 14 25 15 59 6 39 -11 51 -25 59 -68 5 -30 -12 -37 -41
-18 l-25 16 21 -53 c21 -52 62 -97 76 -83 4 4 -1 12 -10 19 -15 11 -15 13 0
24 13 9 14 14 5 18 -19 8 -15 35 7 64 11 14 20 30 20 36 0 7 7 15 16 18 19 7
47 -12 38 -25 -3 -5 6 -9 20 -9 13 0 32 -3 41 -6 21 -8 45 -56 45 -89 0 -31
-28 -45 -45 -22 -16 22 -34 22 -50 0 -11 -15 -15 -15 -29 -4 -10 8 -16 9 -16
3 0 -12 7 -19 52 -53 22 -16 26 -25 21 -49 -4 -24 -1 -31 18 -39 50 -20 64
-24 76 -22 6 1 21 -11 32 -25 16 -20 25 -24 33 -16 8 8 6 15 -6 28 -16 15 -16
18 4 36 14 13 27 17 38 12 9 -4 23 -8 31 -8 17 -1 60 -82 61 -111 0 -11 -4
-27 -10 -35 -8 -12 -10 -12 -16 3 -9 25 -24 21 -24 -8 0 -26 -24 -35 -33 -12
-4 9 -8 8 -16 -3 -12 -17 -12 -16 -34 30 l-17 35 0 -32 c0 -38 -17 -44 -29
-11 -8 21 -8 21 -15 -6 -7 -28 -7 -28 -28 -10 -15 14 -22 16 -25 7 -6 -18 -32
-16 -39 2 -5 12 -9 13 -20 4 -11 -9 -19 -8 -33 5 -13 12 -21 14 -26 6 -4 -6
-13 -9 -21 -6 -7 3 -16 1 -18 -3 -15 -24 -105 25 -106 57 0 6 -4 12 -10 12 -5
0 -10 -9 -10 -20 0 -25 -1 -25 -46 2 l-36 21 6 -20 c8 -26 -7 -38 -24 -18 -7
8 -17 15 -23 15 -6 0 1 -13 16 -28 15 -15 27 -31 27 -35 0 -15 -28 -6 -46 14
-24 26 -74 53 -74 40 0 -12 -103 39 -131 65 -18 16 -19 16 -19 -10 0 -23 -3
-25 -18 -17 -10 5 -24 21 -31 35 -8 14 -18 23 -23 20 -5 -4 -20 4 -34 17 -13
12 -27 19 -31 15 -4 -4 7 -18 25 -32 18 -14 32 -32 32 -40 0 -18 -2 -18 -45 7
-25 15 -35 27 -32 39 2 10 1 24 -4 31 -7 11 -9 10 -9 -3 0 -44 -44 -23 -92 46
-15 20 -18 30 -9 35 12 8 5 41 -10 41 -4 0 -6 -6 -3 -14 3 -8 0 -17 -7 -22 -8
-4 -15 -2 -18 7 -2 7 -17 27 -33 42 -34 35 -48 59 -48 86 0 12 -4 21 -9 21 -5
0 -7 -9 -4 -20 4 -14 0 -20 -10 -20 -17 0 -39 32 -36 53 5 43 -2 65 -25 71
-28 7 -38 28 -30 62 5 19 11 23 25 19 11 -4 19 -2 19 3 0 5 -9 12 -20 15 -11
3 -20 10 -20 16 0 14 5 14 33 -1z m-813 -43 c-7 -14 -19 -25 -27 -25 -18 0
-17 29 2 36 8 4 15 13 15 22 0 12 3 13 12 4 9 -9 8 -17 -2 -37z m70 25 c0 -5
-4 -10 -10 -10 -5 0 -10 5 -10 10 0 6 5 10 10 10 6 0 10 -4 10 -10z m690 -41
c0 -15 -15 -10 -33 11 -10 12 -15 26 -11 32 7 11 44 -25 44 -43z m-99 -3 c36
-36 63 -68 83 -101 29 -45 88 -105 115 -116 21 -9 23 -14 18 -55 -2 -25 -8
-48 -11 -52 -9 -8 -24 15 -33 48 -3 14 -26 42 -49 63 -29 26 -45 49 -50 72 -4
22 -13 37 -26 41 -11 3 -30 28 -43 56 -13 28 -30 55 -37 59 -7 5 -8 9 -2 9 6
0 22 -11 35 -24z m-950 -27 l-10 -24 0 26 c-1 14 2 29 6 33 12 12 14 -9 4 -35z
m885 16 c4 -8 12 -15 20 -15 13 0 34 -30 34 -49 0 -20 -68 33 -73 56 -5 26 10
32 19 8z m748 0 c3 -8 2 -15 -3 -15 -5 0 -14 7 -21 15 -10 12 -10 15 3 15 8 0
17 -7 21 -15z m-160 -10 c-4 -8 -13 -15 -21 -15 -13 0 -13 3 -3 15 7 8 16 15
21 15 5 0 6 -7 3 -15z m116 -16 c0 -5 -7 -9 -15 -9 -9 0 -15 9 -15 21 0 18 2
19 15 9 8 -7 15 -16 15 -21z m117 5 c-3 -3 -12 -4 -19 -1 -8 3 -5 6 6 6 11 1
17 -2 13 -5z m-1388 -164 c13 -82 14 -140 1 -140 -5 0 -10 6 -10 13 0 7 -9 20
-20 30 -11 9 -21 29 -21 44 -1 16 -2 46 -3 68 -1 22 5 62 13 88 l16 49 7 -44
c3 -24 11 -72 17 -108z m571 113 c0 -19 45 -63 65 -63 12 0 15 6 10 21 -6 19
-5 20 15 9 20 -10 21 -17 15 -78 -4 -37 -6 -84 -6 -104 1 -30 -2 -36 -14 -32
-8 4 -15 15 -15 25 0 10 -4 19 -9 19 -5 0 -11 9 -14 20 -4 17 -2 18 14 10 17
-10 18 -8 9 16 -6 14 -30 52 -55 84 -45 58 -60 105 -30 94 8 -4 15 -13 15 -21z
m-1030 -40 c0 -14 -19 -38 -25 -32 -8 8 5 39 16 39 5 0 9 -3 9 -7z m350 -3 c0
-5 -5 -10 -11 -10 -5 0 -7 5 -4 10 3 6 8 10 11 10 2 0 4 -4 4 -10z m-70 -15
c0 -8 -4 -15 -10 -15 -5 0 -10 7 -10 15 0 8 5 15 10 15 6 0 10 -7 10 -15z
m104 -148 c-5 -17 -7 -17 -24 -2 -24 22 -34 74 -17 94 8 9 18 25 22 36 6 15
10 3 16 -45 5 -36 6 -73 3 -83z m2026 112 c0 -5 -6 -9 -14 -9 -15 0 -28 24
-19 34 7 7 33 -13 33 -25z m-2420 -91 l-1 -103 -21 43 c-18 37 -19 49 -10 80
6 20 14 47 17 60 12 42 15 22 15 -80z m-210 83 c0 -6 -4 -13 -10 -16 -5 -3
-10 1 -10 9 0 9 5 16 10 16 6 0 10 -4 10 -9z m516 -62 c6 -35 9 -69 6 -76 -7
-22 -27 -3 -29 28 -1 17 -7 37 -14 45 -14 16 -2 77 14 71 7 -2 17 -32 23 -68z
m743 47 c17 -18 20 -29 14 -52 -4 -16 -6 -36 -4 -44 2 -8 -9 -3 -23 13 -14 15
-23 33 -20 41 3 8 1 17 -5 21 -16 9 -14 45 2 45 8 0 24 -11 36 -24z m-2422 -1
c9 -24 -1 -27 -15 -5 -8 13 -8 20 -2 20 6 0 13 -7 17 -15z m43 5 c0 -5 -4 -10
-10 -10 -5 0 -10 5 -10 10 0 6 5 10 10 10 6 0 10 -4 10 -10z m890 6 c0 -3 -4
-8 -10 -11 -5 -3 -10 -1 -10 4 0 6 5 11 10 11 6 0 10 -2 10 -4z m3657 -12 c-3
-3 -12 -4 -19 -1 -8 3 -5 6 6 6 11 1 17 -2 13 -5z m-3053 -30 c10 -26 7 -149
-3 -138 -14 14 -26 154 -13 154 5 0 13 -7 16 -16z m2328 -11 c-3 -25 33 -103
48 -103 6 0 10 -4 10 -10 0 -5 -9 -10 -20 -10 -38 0 -99 118 -73 144 15 14 38
0 35 -21z m802 18 c4 -5 -3 -7 -14 -4 -23 6 -26 13 -6 13 8 0 17 -4 20 -9z
m-4694 -11 c0 -5 -4 -10 -10 -10 -5 0 -10 5 -10 10 0 6 5 10 10 10 6 0 10 -4
10 -10z m3947 -12 c-3 -8 -6 -5 -6 6 -1 11 2 17 5 13 3 -3 4 -12 1 -19z
m-1295 -58 c41 -41 66 -75 62 -81 -4 -8 -19 1 -41 25 -19 20 -50 48 -69 62
-29 23 -47 64 -28 64 4 0 38 -31 76 -70z m-1340 15 c-12 -27 -35 -26 -27 0 15
48 16 48 27 37 9 -9 8 -18 0 -37z m174 21 c3 -13 4 -35 2 -47 -4 -22 -5 -21
-20 11 -15 35 -14 60 3 60 5 0 11 -11 15 -24z m1306 -33 c38 -37 51 -83 25
-83 -20 0 -70 56 -64 72 2 7 0 21 -5 31 -14 28 3 20 44 -20z m1035 -12 c15
-36 18 -35 -36 -13 -8 3 0 -13 18 -35 41 -51 33 -73 -13 -38 -20 15 -36 21
-42 15 -6 -6 -15 -6 -24 0 -12 8 -11 11 7 16 15 4 21 13 21 32 -3 68 45 84 69
23z m198 29 c3 -5 1 -10 -4 -10 -6 0 -11 5 -11 10 0 6 2 10 4 10 3 0 8 -4 11
-10z m105 -50 c0 -4 -12 -5 -26 -2 -25 4 -47 38 -37 55 5 9 63 -41 63 -53z
m-2919 -3 c-8 -8 -11 -5 -11 9 0 27 14 41 18 19 2 -9 -1 -22 -7 -28z m-661 23
c0 -5 -5 -10 -11 -10 -5 0 -7 5 -4 10 3 6 8 10 11 10 2 0 4 -4 4 -10z m1910
-23 c0 -5 -7 -6 -16 -3 -9 3 -22 6 -30 6 -8 0 -14 6 -14 14 0 12 5 12 30 3 17
-6 30 -15 30 -20z m1597 -36 c13 -30 12 -31 -5 -22 -21 11 -52 54 -52 72 0 21
44 -17 57 -50z m-2730 27 c-3 -8 -6 -5 -6 6 -1 11 2 17 5 13 3 -3 4 -12 1 -19z
m2553 10 c0 -7 -4 -19 -9 -27 -11 -17 -25 3 -17 24 7 18 26 20 26 3z m-2725
-27 c3 -5 1 -12 -5 -16 -5 -3 -10 1 -10 9 0 18 6 21 15 7z m-204 -70 c-8 -22
-9 -19 -10 24 0 42 2 46 10 26 6 -15 6 -34 0 -50z m3049 59 c0 -5 -4 -10 -10
-10 -5 0 -10 5 -10 10 0 6 5 10 10 10 6 0 10 -4 10 -10z m24 -45 c3 -8 2 -15
-3 -15 -5 0 -14 7 -21 15 -10 12 -10 15 3 15 8 0 17 -7 21 -15z m142 -21 c24
-58 -1 -60 -30 -2 -20 38 -20 38 0 38 8 0 22 -16 30 -36z m-80 -49 c6 -27 5
-28 -9 -15 -9 8 -19 29 -23 45 -6 27 -5 28 9 15 9 -8 19 -28 23 -45z m25 29
c5 -15 8 -29 5 -31 -2 -2 -8 10 -14 26 -13 38 -5 41 9 5z m-72 -36 l11 -33
-20 24 c-21 25 -26 41 -11 41 5 0 14 -15 20 -32z m-1059 -10 c0 -6 -6 -5 -15
2 -8 7 -15 14 -15 16 0 2 7 1 15 -2 8 -4 15 -11 15 -16z"/>
<path d="M3145 3710 c-9 -15 4 -30 26 -30 24 0 24 12 -1 27 -12 8 -21 9 -25 3z"/>
<path d="M2865 3670 c3 -5 11 -10 16 -10 6 0 7 5 4 10 -3 6 -11 10 -16 10 -6
0 -7 -4 -4 -10z"/>
<path d="M2139 2369 c-7 -15 -8 -24 0 -32 14 -14 41 9 41 34 0 26 -27 24 -41
-2z"/>
<path d="M2759 2283 c-11 -13 -11 -17 -1 -21 7 -2 19 -10 26 -18 8 -8 24 -14
36 -14 18 0 19 3 10 20 -6 12 -21 20 -35 20 -18 0 -23 4 -19 15 8 20 0 19 -17
-2z"/>
<path d="M3270 2150 c-11 -7 -12 -12 -4 -20 8 -8 14 -7 23 4 14 17 1 28 -19
16z"/>
<path d="M2454 2065 c0 -19 4 -35 8 -35 10 0 10 41 0 57 -5 8 -8 -1 -8 -22z"/>
<path d="M2460 1980 c0 -38 19 -162 26 -169 11 -11 12 11 2 89 -11 93 -27 140
-28 80z"/>
<path d="M2484 1686 c-6 -17 2 -36 17 -36 12 0 12 37 -1 45 -6 3 -13 -1 -16
-9z"/>
<path d="M3505 1811 c-6 -11 9 -23 19 -14 9 9 7 23 -3 23 -6 0 -12 -4 -16 -9z"/>
<path d="M3610 1776 c0 -9 5 -16 10 -16 6 0 10 4 10 9 0 6 -4 13 -10 16 -5 3
-10 -1 -10 -9z"/>
<path d="M3520 1741 c0 -11 40 -41 54 -41 5 0 -1 11 -14 25 -24 26 -40 32 -40
16z"/>
<path d="M3690 1680 c0 -21 43 -45 61 -34 16 10 10 24 -11 24 -11 0 -23 7 -26
15 -9 22 -24 18 -24 -5z"/>
<path d="M3310 1661 c0 -10 50 -25 58 -17 2 3 -7 10 -22 16 -33 12 -36 12 -36
1z"/>
<path d="M3178 1655 c-7 -8 3 -65 12 -65 22 0 27 26 10 47 -9 12 -20 20 -22
18z"/>
<path d="M3261 1644 c9 -11 19 -26 22 -34 4 -8 5 -2 4 15 -1 21 -8 31 -22 34
-19 3 -19 2 -4 -15z"/>
<path d="M3384 1622 c9 -15 48 -23 43 -9 -2 7 -14 14 -26 15 -13 2 -21 -1 -17
-6z"/>
<path d="M3820 1620 c0 -5 5 -10 10 -10 6 0 10 5 10 10 0 6 -4 10 -10 10 -5 0
-10 -4 -10 -10z"/>
<path d="M3300 1571 c0 -5 7 -15 17 -22 15 -13 15 -12 4 9 -12 23 -21 28 -21
13z"/>
<path d="M3870 1576 c0 -2 8 -10 18 -17 15 -13 16 -12 3 4 -13 16 -21 21 -21
13z"/>
<path d="M3816 1542 c-3 -6 -1 -14 5 -17 15 -10 25 3 12 16 -7 7 -13 7 -17 1z"/>
<path d="M4150 1502 c6 -13 14 -21 18 -18 3 4 -2 14 -12 24 -18 16 -18 16 -6
-6z"/>
<path d="M3485 1470 c3 -5 11 -10 16 -10 6 0 7 5 4 10 -3 6 -11 10 -16 10 -6
0 -7 -4 -4 -10z"/>
</g>
</svg>
